<svg xmlns="http://www.w3.org/2000/svg" viewBox="0 0 100 100">
  <defs>
    <linearGradient id="bg5" x1="0%" y1="0%" x2="100%" y2="100%">
      <stop offset="0%" style="stop-color:#0a0a1a"/>
      <stop offset="100%" style="stop-color:#1a0a2a"/>
    </linearGradient>
  </defs>
  <rect width="100" height="100" fill="url(#bg5)"/>
  <path d="M50 18 L65 28 L65 48 L50 58 L35 48 L35 28 Z" fill="none" stroke="#a855f7" stroke-width="2"/>
  <path d="M50 23 L60 31 L60 45 L50 53 L40 45 L40 31 Z" fill="#a855f7" opacity="0.2"/>
  <path d="M25 92 Q25 62 50 58 Q75 62 75 92" fill="none" stroke="#a855f7" stroke-width="2"/>
  <path d="M30 88 Q30 66 50 62 Q70 66 70 88" fill="#a855f7" opacity="0.2"/>
  <circle cx="44" cy="36" r="2.5" fill="#a855f7"/>
  <circle cx="56" cy="36" r="2.5" fill="#a855f7"/>
  <line x1="46" y1="44" x2="54" y2="44" stroke="#a855f7" stroke-width="2"/>
</svg>